<svg width="183" height="13" viewBox="0 0 183 13" fill="none" xmlns="http://www.w3.org/2000/svg">
    <path d="M9.04377 12.7841H0.259766V11.5421L7.00977 2.11008H0.259766V0.778078H8.91777V2.02008L2.16777 11.4521H9.04377V12.7841Z"
          fill="white"/>
    <path d="M14.9291 12.7841H22.7951V0.778078H14.9291V2.11008H21.3011V5.98008H15.0551V7.31208H21.3011V11.4521H14.9291V12.7841Z"
          fill="white"/>
    <path d="M37.4891 12.7841H35.7251L32.6651 8.01408H30.2711V12.7841H28.7771V0.778078H33.6011C34.7171 0.778078 35.6231 1.10808 36.3191 1.76808C37.0151 2.42808 37.3631 3.30408 37.3631 4.39608C37.3631 5.42808 37.0631 6.25008 36.4631 6.86208C35.8631 7.47408 35.1251 7.81608 34.2491 7.88808L37.4891 12.7841ZM33.4211 6.70008C34.1291 6.70008 34.7051 6.48408 35.1491 6.05208C35.5931 5.62008 35.8151 5.06808 35.8151 4.39608C35.8151 3.72408 35.5931 3.17808 35.1491 2.75808C34.7051 2.32608 34.1291 2.11008 33.4211 2.11008H30.2711V6.70008H33.4211Z"
          fill="white"/>
    <path d="M48.8003 13.0001C47.0363 13.0001 45.6023 12.4121 44.4983 11.2361C43.3943 10.0601 42.8423 8.57808 42.8423 6.79008C42.8423 5.00208 43.3943 3.52008 44.4983 2.34408C45.6023 1.16808 47.0363 0.580078 48.8003 0.580078C50.5523 0.580078 51.9803 1.16808 53.0843 2.34408C54.2003 3.52008 54.7583 5.00208 54.7583 6.79008C54.7583 8.57808 54.2003 10.0601 53.0843 11.2361C51.9803 12.4121 50.5523 13.0001 48.8003 13.0001ZM48.8003 11.6681C50.1203 11.6681 51.1823 11.2121 51.9863 10.3001C52.8023 9.37608 53.2103 8.20608 53.2103 6.79008C53.2103 5.36208 52.8023 4.19208 51.9863 3.28008C51.1823 2.36808 50.1203 1.91208 48.8003 1.91208C47.4683 1.91208 46.4003 2.36808 45.5963 3.28008C44.7923 4.19208 44.3903 5.36208 44.3903 6.79008C44.3903 8.20608 44.7923 9.37608 45.5963 10.3001C46.4003 11.2121 47.4683 11.6681 48.8003 11.6681Z"
          fill="white"/>
    <path d="M70.628 12.7841H69.188L62.186 3.20808V12.7841H60.692V0.778078H62.222L69.134 10.1561V0.778078H70.628V12.7841Z"
          fill="white"/>
    <path d="M84.9021 12.7841H77.0361V0.778078H84.9021V2.11008H78.5301V5.98008H84.7761V7.31208H78.5301V11.4521H84.9021V12.7841Z"
          fill="white"/>
    <path d="M113.16 13L110.453 6.28711H109.416L106.719 13H107.675L108.269 11.5105H111.61L112.204 13H113.16ZM111.358 10.7657H108.51L109.939 7.15264L111.358 10.7657Z"
          fill="white" fill-opacity="0.6"/>
    <path d="M117.641 13C119.724 13 121.083 11.5608 121.083 9.64859C121.083 7.74644 119.724 6.28711 117.641 6.28711H115.346V13H117.641ZM117.641 12.2553H116.181V7.03187H117.641C119.301 7.03187 120.217 8.19933 120.217 9.64859C120.217 11.0878 119.271 12.2553 117.641 12.2553Z"
          fill="white" fill-opacity="0.6"/>
    <path d="M130.273 13V6.28711H129.076L126.982 11.3394L124.899 6.28711H123.701V13H124.537V7.4747L126.811 13H127.153L129.438 7.4747V13H130.273Z"
          fill="white" fill-opacity="0.6"/>
    <path d="M133.983 13V6.28711H133.148V13H133.983Z" fill="white" fill-opacity="0.6"/>
    <path d="M142.419 13V6.28711H141.584V11.5306L137.719 6.28711H136.864V13H137.699V7.64579L141.614 13H142.419Z"
          fill="white" fill-opacity="0.6"/>
    <path d="M150.036 13V10.333H151.898C153.227 10.333 154.002 9.40705 154.002 8.31004C154.002 7.21303 153.247 6.28711 151.898 6.28711H149.201V13H150.036ZM151.798 9.58821H150.036V7.03187H151.798C152.593 7.03187 153.136 7.55521 153.136 8.31004C153.136 9.06486 152.593 9.58821 151.798 9.58821Z"
          fill="white" fill-opacity="0.6"/>
    <path d="M161.386 13L158.679 6.28711H157.643L154.945 13H155.901L156.495 11.5105H159.837L160.43 13H161.386ZM159.585 10.7657H156.737L158.166 7.15264L159.585 10.7657Z"
          fill="white" fill-opacity="0.6"/>
    <path d="M169.128 13V6.28711H168.293V11.5306L164.428 6.28711H163.572V13H164.408V7.64579L168.323 13H169.128Z"
          fill="white" fill-opacity="0.6"/>
    <path d="M176.405 13V12.2553H172.842V9.94046H176.334V9.1957H172.842V7.03187H176.405V6.28711H172.006V13H176.405Z"
          fill="white" fill-opacity="0.6"/>
    <path d="M183 13V12.2553H179.88V6.28711H179.045V13H183Z" fill="white" fill-opacity="0.6"/>
</svg>
