<svg xmlns="http://www.w3.org/2000/svg" width="192" height="192" viewBox="0 0 192 192">
    <defs>
        <style>.b5a026fe-799f-4595-a973-42f335eff156{fill:#495058;}.e9a6feb1-29de-4968-a939-d449b6627a89{fill:none;}.\34
            f80dbb2-fa57-4b75-9a64-456ab7d10a29{fill:#00a68b;}
        </style>
    </defs>
    <title>icon_service_support</title>
    <g id="7769d303-e80a-4ee5-9ac6-89ce4df77568" data-name="Ebene 2">
        <g id="0f7481cc-e748-4d09-873b-72624c792397" data-name="Icon">
            <path class="b5a026fe-799f-4595-a973-42f335eff156"
                  d="M174,84h-7A72,72,0,0,0,25,84H18v24H34V84h-.86a64,64,0,0,1,125.72,0H158v24h4.92A68.16,68.16,0,0,1,108,162.92V162a4,4,0,0,0-4-4H88a4,4,0,0,0-4,4v8a4,4,0,0,0,4,4h16a4,4,0,0,0,4-4v-3a72,72,0,0,0,59-59h7Z"/>
            <rect class="e9a6feb1-29de-4968-a939-d449b6627a89" width="192" height="192"/>
            <rect class="4f80dbb2-fa57-4b75-9a64-456ab7d10a29" x="28" y="74" width="16" height="44" rx="4.2" ry="4.2"/>
            <rect class="4f80dbb2-fa57-4b75-9a64-456ab7d10a29" x="148" y="74" width="16" height="44" rx="4.2" ry="4.2"/>
            <path class="b5a026fe-799f-4595-a973-42f335eff156"
                  d="M69.18,101.45a.47.47,0,0,1,.13-.35l6-6.7a3,3,0,0,0,.92-2.1,1.48,1.48,0,0,0-1.52-1.65c-1,0-1.58.58-1.7,1.9a.22.22,0,0,1-.28.23l-3.29-.5a.23.23,0,0,1-.2-.3c.14-2.7,2.34-4.78,5.64-4.78s5.48,2.13,5.48,5a6,6,0,0,1-1.85,4.3l-4,4.5v0h5.65a.24.24,0,0,1,.25.25v3a.24.24,0,0,1-.25.25H69.43a.24.24,0,0,1-.25-.25Z"/>
            <path class="b5a026fe-799f-4595-a973-42f335eff156"
                  d="M82.34,101.87v-3.2a.52.52,0,0,1,0-.27l4.67-10.7a.33.33,0,0,1,.35-.2h3.93c.17,0,.25.1.17.25L86.79,98.47v0h2.4c.1,0,.15,0,.15-.14v-3a.24.24,0,0,1,.25-.26h3.5a.24.24,0,0,1,.25.26v3c0,.09,0,.14.12.14h1a.24.24,0,0,1,.25.25v3.1a.24.24,0,0,1-.25.25h-1a.13.13,0,0,0-.15.15v2a.24.24,0,0,1-.25.25h-3.5a.24.24,0,0,1-.25-.25v-2a.13.13,0,0,0-.15-.15h-6.6A.24.24,0,0,1,82.34,101.87Z"/>
            <path class="b5a026fe-799f-4595-a973-42f335eff156"
                  d="M103.4,87.45a.32.32,0,0,1,.32-.25h3.58c.15,0,.22.1.17.25l-5.3,17.1a.32.32,0,0,1-.32.25H98.27c-.15,0-.22-.1-.17-.25Z"/>
            <path class="b5a026fe-799f-4595-a973-42f335eff156"
                  d="M118.47,91.2v-.07h-2.92a.13.13,0,0,0-.15.15v1.6a.24.24,0,0,1-.25.25h-3.4a.24.24,0,0,1-.25-.25V87.75a.24.24,0,0,1,.25-.25h10.82a.24.24,0,0,1,.25.25v3.3a.85.85,0,0,1,0,.25l-5.17,13c-.08.2-.15.25-.35.25h-3.83a.2.2,0,0,1-.2-.28Z"/>
            <path class="4f80dbb2-fa57-4b75-9a64-456ab7d10a29"
                  d="M96,50a46,46,0,0,0-12,90.4v-8.35a38,38,0,1,1,17,1.61V126L87,138l14,12v-8.28A46,46,0,0,0,96,50Z"/>
        </g>
    </g>
</svg>