<svg width="20" height="21" viewBox="0 0 20 21" fill="none" xmlns="http://www.w3.org/2000/svg">
    <path d="M12.742 10.5665L12.3884 10.92L12.742 11.2736L19.4656 17.997L17.0773 20.3854L10.3536 13.6618L10 13.3082L9.64645 13.6618L2.92269 20.3854L0.534446 17.997L7.25799 11.2736L7.61155 10.92L7.25799 10.5665L0.534443 3.84302L2.92269 1.45442L9.64645 8.17807L10 8.53162L10.3536 8.17807L17.0773 1.45442L19.4654 3.84302L12.742 10.5665ZM19.5243 17.9383L19.524 17.9386C19.5241 17.9385 19.5242 17.9383 19.5243 17.9382L19.5243 17.9383ZM0.475661 18.0558L0.475947 18.0555C0.475852 18.0556 0.475756 18.0557 0.475661 18.0558L0.416887 17.997L0.475661 18.0558ZM0.475661 3.90181L0.475691 3.90179C0.475681 3.9018 0.475671 3.9018 0.475661 3.90181ZM19.5241 3.78425L19.524 3.78442C19.524 3.78436 19.5241 3.7843 19.5241 3.78424L19.5829 3.84299L19.5241 3.78425Z"
          fill="#FF5573" stroke="white"/>
</svg>
