<svg width="20" height="21" viewBox="0 0 20 21" fill="none" xmlns="http://www.w3.org/2000/svg">
    <path d="M0 4.05052C0.0379741 3.8655 0.0646369 3.67644 0.116346 3.49546C0.270558 2.95704 0.585104 2.47837 1.01811 2.12316C1.45112 1.76794 1.98205 1.55305 2.54022 1.50707C2.62667 1.4998 2.71313 1.49414 2.79958 1.49414H9.52745C9.85872 1.49414 10.1027 1.66543 10.1859 1.95468C10.2118 2.04463 10.2173 2.13923 10.2019 2.23156C10.1865 2.32389 10.1506 2.4116 10.0969 2.48828C10.0433 2.56497 9.97311 2.62868 9.89163 2.67475C9.81015 2.72082 9.7194 2.74809 9.62602 2.75456C9.57351 2.75456 9.51937 2.75456 9.46443 2.75456H2.81816C2.04333 2.75456 1.43978 3.2466 1.29112 3.99962C1.2712 4.10454 1.26172 4.21117 1.26284 4.31796C1.26284 8.75635 1.26284 13.1945 1.26284 17.6323C1.26284 18.4201 1.78236 19.043 2.54507 19.1715C2.63413 19.1845 2.72414 19.19 2.81412 19.1876C7.46904 19.1876 12.124 19.189 16.7789 19.1917C16.9834 19.1932 17.1862 19.154 17.3755 19.0763C17.5647 18.9986 17.7366 18.8841 17.8812 18.7393C18.0257 18.5946 18.14 18.4225 18.2173 18.2331C18.2947 18.0438 18.3336 17.8409 18.3318 17.6364C18.3286 15.5357 18.3286 13.4366 18.3318 11.3391C18.3318 11.003 18.5071 10.7606 18.8052 10.6831C18.8951 10.6601 18.9888 10.6572 19.0799 10.6745C19.171 10.6918 19.2572 10.729 19.3323 10.7834C19.4074 10.8377 19.4696 10.9079 19.5145 10.9891C19.5594 11.0702 19.586 11.1602 19.5922 11.2527C19.5922 11.2826 19.5922 11.3125 19.5922 11.3424C19.5922 13.443 19.6043 15.5437 19.5882 17.6444C19.5785 18.8564 18.9975 19.7249 17.8995 20.2404C17.6258 20.3645 17.3311 20.4361 17.031 20.4513C16.9922 20.4513 16.9502 20.4626 16.9138 20.4682H2.67919C2.60648 20.4602 2.53376 20.4529 2.46185 20.444C1.90909 20.3805 1.38824 20.1521 0.967041 19.7885C0.545844 19.425 0.243797 18.9431 0.100187 18.4055C0.055749 18.2439 0.0331263 18.0751 0 17.9094V4.05052Z"
          fill="#21A45D"/>
    <path d="M3.88477 15.8345C3.9 15.7528 3.91942 15.6719 3.94294 15.5922C4.32591 14.44 4.70727 13.2879 5.09832 12.1389C5.14397 12.0074 5.2182 11.8877 5.31566 11.7883C8.85775 8.23865 12.4023 4.69171 15.9492 1.14746C16.253 0.843671 16.6206 0.844479 16.926 1.14746L19.2142 3.43803C19.5293 3.75394 19.5309 4.1159 19.2142 4.42939C15.671 7.9731 12.1268 11.5155 8.58143 15.0565C8.48005 15.1567 8.35746 15.2329 8.2227 15.2795C7.07378 15.6697 5.9184 16.0446 4.77029 16.4373C4.35096 16.5803 3.98657 16.3403 3.90658 16.001C3.89769 15.9533 3.89446 15.9032 3.88477 15.8345ZM14.0408 4.8366C13.9527 4.92629 13.8663 5.01839 13.7766 5.10808C11.2962 7.58905 8.81601 10.0703 6.33611 12.5518C6.2955 12.5903 6.26379 12.6371 6.2432 12.6892C6.00943 13.3824 5.77781 14.0764 5.54835 14.7713C5.54136 14.7959 5.53623 14.821 5.533 14.8464C5.54663 14.8446 5.56013 14.8419 5.5734 14.8383C6.27686 14.604 6.98033 14.3686 7.68379 14.1322C7.73602 14.1127 7.78323 14.0818 7.82195 14.0417C10.325 11.5402 12.8273 9.03826 15.3287 6.53574C15.399 6.46545 15.4766 6.40243 15.5452 6.34102L14.0408 4.8366ZM14.974 3.92927L16.4413 5.39733L17.8996 3.93896L16.4316 2.47171C15.9476 2.95648 15.4555 3.44772 14.974 3.92927Z"
          fill="#21A45D"/>
</svg>
