<svg width="17" height="13" viewBox="0 0 17 13" fill="none" xmlns="http://www.w3.org/2000/svg">
    <circle cx="10.7598" cy="3.08008" r="2.1" stroke="white" stroke-opacity="0.4" stroke-width="0.8"/>
    <path fill-rule="evenodd" clip-rule="evenodd"
          d="M15.459 12.5801H16.2598C16.2598 11.333 15.9102 10.1748 15.3125 9.21484C14.3242 7.625 12.6543 6.58008 10.7598 6.58008C7.72266 6.58008 5.25977 9.2666 5.25977 12.5801H6.06055C6.06055 10.7334 6.91602 9.1543 8.17969 8.23535C8.92773 7.69238 9.81836 7.37988 10.7598 7.37988C13.291 7.37988 15.459 9.6416 15.459 12.5801Z"
          fill="white" fill-opacity="0.4"/>
    <rect x="6.04492" y="11.7803" width="9.42184" height="0.8" fill="white" fill-opacity="0.4"/>
    <circle cx="5.25924" cy="4.48482" r="1.73033" stroke="white" stroke-opacity="0.4" stroke-width="0.8"/>
    <path fill-rule="evenodd" clip-rule="evenodd"
          d="M7.25391 7.95117C6.64844 7.64062 5.97266 7.4668 5.25977 7.4668C2.66992 7.4668 0.572266 9.75586 0.572266 12.5791H1.37305C1.37305 11.0107 2.11328 9.68164 3.19336 8.92969C3.79883 8.50781 4.51172 8.2666 5.25977 8.2666C5.75391 8.2666 6.23242 8.37109 6.67578 8.56445C6.8125 8.4082 6.96484 8.2373 7.12109 8.08105C7.16602 8.03613 7.20898 7.99316 7.25391 7.95117Z"
          fill="white" fill-opacity="0.4"/>
    <rect x="1.36523" y="11.8984" width="3.89534" height="0.681705" fill="white" fill-opacity="0.4"/>
</svg>
