<svg width="16" height="16" viewBox="0 0 16 16" fill="none" xmlns="http://www.w3.org/2000/svg">
    <path d="M14.6236 6.54297L13.5501 6.36085C13.4382 5.9998 13.2945 5.65153 13.1187 5.31924L13.7514 4.43419C14.0197 4.05716 13.9782 3.54274 13.6491 3.21684L12.697 2.26469C12.518 2.08576 12.2816 1.98671 12.0292 1.98671C11.8311 1.98671 11.6426 2.04742 11.4828 2.16245L10.5946 2.79508C10.2495 2.61296 9.88844 2.46279 9.51461 2.35096L9.33568 1.29017C9.259 0.83327 8.86599 0.500977 8.4027 0.500977H7.05755C6.59425 0.500977 6.20125 0.83327 6.12457 1.29017L5.93925 2.37652C5.5814 2.48835 5.23313 2.63533 4.90083 2.81425L4.02217 2.18162C3.86242 2.06659 3.67071 2.00588 3.47261 2.00588C3.22019 2.00588 2.98056 2.10493 2.80483 2.28386L1.84948 3.23601C1.52358 3.56191 1.47885 4.07633 1.74724 4.45336L2.38626 5.35119C2.21053 5.68668 2.06995 6.03495 1.96131 6.396L0.900526 6.57493C0.443622 6.65161 0.111328 7.04461 0.111328 7.5079V8.85306C0.111328 9.31635 0.443622 9.70935 0.900526 9.78604L1.98687 9.97135C2.0987 10.3292 2.24568 10.6775 2.42461 11.0098L1.79516 11.8852C1.52677 12.2623 1.56831 12.7767 1.89741 13.1026L2.84956 14.0547C3.02849 14.2337 3.26493 14.3327 3.51734 14.3327C3.71544 14.3327 3.90395 14.272 4.06371 14.157L4.96154 13.518C5.28425 13.6873 5.62293 13.8247 5.9712 13.9333L6.15013 15.0069C6.22681 15.4638 6.61982 15.7961 7.08311 15.7961H8.43146C8.89475 15.7961 9.28775 15.4638 9.36444 15.0069L9.54656 13.9333C9.90761 13.8215 10.2559 13.6777 10.5882 13.502L11.4732 14.1346C11.633 14.2496 11.8247 14.3103 12.0228 14.3103C12.2752 14.3103 12.5116 14.2113 12.6906 14.0324L13.6427 13.0802C13.9686 12.7543 14.0134 12.2399 13.745 11.8629L13.1123 10.9746C13.2881 10.6391 13.435 10.2909 13.5437 9.93301L14.6172 9.75408C15.0741 9.6774 15.4064 9.2844 15.4064 8.82111V7.47595C15.4128 7.01266 15.0805 6.61966 14.6236 6.54297ZM14.5501 8.82111C14.5501 8.86264 14.5214 8.89779 14.4798 8.90418L13.1379 9.12784C12.9685 9.15659 12.8344 9.2812 12.7928 9.44416C12.6714 9.91384 12.4861 10.3644 12.2369 10.7829C12.1506 10.9299 12.157 11.112 12.256 11.2526L13.0452 12.3645C13.0676 12.3965 13.0644 12.4444 13.0356 12.4731L12.0835 13.4253C12.0611 13.4477 12.0388 13.4509 12.0228 13.4509C12.0036 13.4509 11.9876 13.4445 11.9749 13.4349L10.8661 12.6457C10.7288 12.5466 10.5434 12.5402 10.3965 12.6265C9.9779 12.8757 9.52739 13.061 9.0577 13.1825C8.89156 13.224 8.76695 13.3614 8.74138 13.5275L8.51453 14.8695C8.50814 14.911 8.47299 14.9398 8.43146 14.9398H7.08631C7.04477 14.9398 7.00962 14.911 7.00323 14.8695L6.77957 13.5275C6.75082 13.3582 6.62621 13.224 6.46325 13.1825C6.00635 13.0642 5.56542 12.8821 5.15325 12.6457C5.08615 12.6073 5.00947 12.5882 4.93598 12.5882C4.84971 12.5882 4.76025 12.6137 4.68676 12.668L3.56846 13.4636C3.55249 13.4732 3.53651 13.4796 3.52054 13.4796C3.50776 13.4796 3.48219 13.4764 3.45983 13.454L2.50768 12.5019C2.47892 12.4731 2.47573 12.4284 2.49809 12.3933L3.2841 11.2909C3.38315 11.1504 3.38954 10.965 3.30327 10.8181C3.05405 10.4027 2.86234 9.95218 2.74092 9.4825C2.69619 9.31955 2.562 9.19493 2.39585 9.16618L1.04431 8.93613C1.00277 8.92974 0.974014 8.89459 0.974014 8.85306V7.5079C0.974014 7.46637 1.00277 7.43122 1.04431 7.42483L2.37668 7.20117C2.54602 7.17242 2.68341 7.04781 2.72495 6.88166C2.84317 6.41197 3.02529 5.95826 3.27132 5.5397C3.35758 5.39273 3.348 5.2106 3.24895 5.07321L2.45336 3.95492C2.431 3.92296 2.43419 3.87504 2.46295 3.84628L3.4151 2.89413C3.43746 2.87177 3.45983 2.86857 3.4758 2.86857C3.49497 2.86857 3.51095 2.87496 3.52373 2.88455L4.62605 3.67055C4.76664 3.7696 4.95196 3.77599 5.09893 3.68972C5.5143 3.4405 5.96481 3.24879 6.4345 3.12738C6.59745 3.08264 6.72206 2.94845 6.75082 2.7823L6.98087 1.43076C6.98726 1.38922 7.0224 1.36047 7.06394 1.36047H8.40909C8.45063 1.36047 8.48577 1.38922 8.49216 1.43076L8.71582 2.76313C8.74458 2.93247 8.86919 3.06986 9.03534 3.1114C9.5178 3.23282 9.9779 3.42133 10.406 3.67374C10.553 3.76001 10.7351 3.75362 10.8757 3.65457L11.9781 2.86218C11.994 2.8526 12.01 2.8462 12.026 2.8462C12.0388 2.8462 12.0643 2.8494 12.0867 2.87177L13.0388 3.82392C13.0676 3.85267 13.0708 3.8974 13.0484 3.93255L12.2592 5.04126C12.1602 5.17865 12.1538 5.36397 12.2401 5.51095C12.4893 5.92951 12.6746 6.38002 12.796 6.84971C12.8375 7.01585 12.9749 7.14046 13.1411 7.16603L14.483 7.39288C14.5246 7.39927 14.5533 7.43442 14.5533 7.47595V8.82111H14.5501Z"
          fill="white"/>
    <path d="M7.76151 4.84668C5.94028 4.84668 4.46094 6.32603 4.46094 8.14725C4.46094 9.96848 5.94028 11.4478 7.76151 11.4478C9.58274 11.4478 11.0621 9.96848 11.0621 8.14725C11.0621 6.32603 9.58274 4.84668 7.76151 4.84668ZM7.76151 10.5851C6.41636 10.5851 5.32362 9.4924 5.32362 8.14725C5.32362 6.8021 6.41636 5.70937 7.76151 5.70937C9.10666 5.70937 10.1994 6.8021 10.1994 8.14725C10.1994 9.4924 9.10666 10.5851 7.76151 10.5851Z"
          fill="white"/>
</svg>
