<svg width="16" height="16" viewBox="0 0 16 16" fill="none" xmlns="http://www.w3.org/2000/svg">
    <path d="M14.6236 6.31641L13.5501 6.13429C13.4382 5.77324 13.2945 5.42497 13.1187 5.09268L13.7514 4.20762C14.0197 3.8306 13.9782 3.31618 13.6491 2.99028L12.697 2.03813C12.518 1.8592 12.2816 1.76015 12.0292 1.76015C11.8311 1.76015 11.6426 1.82086 11.4828 1.93588L10.5946 2.56852C10.2495 2.3864 9.88844 2.23623 9.51461 2.1244L9.33568 1.06361C9.259 0.606708 8.86599 0.274414 8.4027 0.274414H7.05755C6.59425 0.274414 6.20125 0.606708 6.12457 1.06361L5.93925 2.14996C5.5814 2.26179 5.23313 2.40876 4.90083 2.58769L4.02217 1.95505C3.86242 1.84003 3.67071 1.77932 3.47261 1.77932C3.22019 1.77932 2.98056 1.87837 2.80483 2.0573L1.84948 3.00945C1.52358 3.33535 1.47885 3.84977 1.74724 4.22679L2.38626 5.12463C2.21053 5.46012 2.06995 5.80839 1.96131 6.16944L0.900526 6.34836C0.443622 6.42505 0.111328 6.81805 0.111328 7.28134V8.62649C0.111328 9.08979 0.443622 9.48279 0.900526 9.55947L1.98687 9.74479C2.0987 10.1026 2.24568 10.4509 2.42461 10.7832L1.79516 11.6587C1.52677 12.0357 1.56831 12.5501 1.89741 12.876L2.84956 13.8282C3.02849 14.0071 3.26493 14.1061 3.51734 14.1061C3.71544 14.1061 3.90395 14.0454 4.06371 13.9304L4.96154 13.2914C5.28425 13.4607 5.62293 13.5981 5.9712 13.7068L6.15013 14.7803C6.22681 15.2372 6.61982 15.5695 7.08311 15.5695H8.43146C8.89475 15.5695 9.28775 15.2372 9.36444 14.7803L9.54656 13.7068C9.90761 13.5949 10.2559 13.4511 10.5882 13.2754L11.4732 13.908C11.633 14.0231 11.8247 14.0838 12.0228 14.0838C12.2752 14.0838 12.5116 13.9847 12.6906 13.8058L13.6427 12.8537C13.9686 12.5278 14.0134 12.0133 13.745 11.6363L13.1123 10.7481C13.2881 10.4126 13.435 10.0643 13.5437 9.70645L14.6172 9.52752C15.0741 9.45084 15.4064 9.05784 15.4064 8.59454V7.24939C15.4128 6.7861 15.0805 6.3931 14.6236 6.31641ZM14.5501 8.59454C14.5501 8.63608 14.5214 8.67123 14.4798 8.67762L13.1379 8.90128C12.9685 8.93003 12.8344 9.05464 12.7928 9.21759C12.6714 9.68728 12.4861 10.1378 12.2369 10.5564C12.1506 10.7033 12.157 10.8855 12.256 11.026L13.0452 12.1379C13.0676 12.1699 13.0644 12.2178 13.0356 12.2466L12.0835 13.1987C12.0611 13.2211 12.0388 13.2243 12.0228 13.2243C12.0036 13.2243 11.9876 13.2179 11.9749 13.2083L10.8661 12.4191C10.7288 12.3201 10.5434 12.3137 10.3965 12.3999C9.9779 12.6492 9.52739 12.8345 9.0577 12.9559C8.89156 12.9974 8.76695 13.1348 8.74138 13.301L8.51453 14.6429C8.50814 14.6845 8.47299 14.7132 8.43146 14.7132H7.08631C7.04477 14.7132 7.00962 14.6845 7.00323 14.6429L6.77957 13.301C6.75082 13.1316 6.62621 12.9974 6.46325 12.9559C6.00635 12.8377 5.56542 12.6556 5.15325 12.4191C5.08615 12.3808 5.00947 12.3616 4.93598 12.3616C4.84971 12.3616 4.76025 12.3872 4.68676 12.4415L3.56846 13.2371C3.55249 13.2467 3.53651 13.253 3.52054 13.253C3.50776 13.253 3.48219 13.2499 3.45983 13.2275L2.50768 12.2753C2.47892 12.2466 2.47573 12.2018 2.49809 12.1667L3.2841 11.0644C3.38315 10.9238 3.38954 10.7385 3.30327 10.5915C3.05405 10.1761 2.86234 9.72562 2.74092 9.25594C2.69619 9.09298 2.562 8.96837 2.39585 8.93962L1.04431 8.70957C1.00277 8.70318 0.974014 8.66803 0.974014 8.62649V7.28134C0.974014 7.23981 1.00277 7.20466 1.04431 7.19827L2.37668 6.97461C2.54602 6.94585 2.68341 6.82124 2.72495 6.6551C2.84317 6.18541 3.02529 5.7317 3.27132 5.31314C3.35758 5.16616 3.348 4.98404 3.24895 4.84665L2.45336 3.72835C2.431 3.6964 2.43419 3.64848 2.46295 3.61972L3.4151 2.66757C3.43746 2.6452 3.45983 2.64201 3.4758 2.64201C3.49497 2.64201 3.51095 2.6484 3.52373 2.65798L4.62605 3.44399C4.76664 3.54304 4.95196 3.54943 5.09893 3.46316C5.5143 3.21394 5.96481 3.02223 6.4345 2.90081C6.59745 2.85608 6.72206 2.72189 6.75082 2.55574L6.98087 1.2042C6.98726 1.16266 7.0224 1.13391 7.06394 1.13391H8.40909C8.45063 1.13391 8.48577 1.16266 8.49216 1.2042L8.71582 2.53657C8.74458 2.70591 8.86919 2.8433 9.03534 2.88484C9.5178 3.00625 9.9779 3.19477 10.406 3.44718C10.553 3.53345 10.7351 3.52706 10.8757 3.42801L11.9781 2.63562C11.994 2.62603 12.01 2.61964 12.026 2.61964C12.0388 2.61964 12.0643 2.62284 12.0867 2.6452L13.0388 3.59735C13.0676 3.62611 13.0708 3.67084 13.0484 3.70599L12.2592 4.8147C12.1602 4.95209 12.1538 5.13741 12.2401 5.28438C12.4893 5.70295 12.6746 6.15346 12.796 6.62314C12.8375 6.78929 12.9749 6.9139 13.1411 6.93946L14.483 7.16632C14.5246 7.17271 14.5533 7.20785 14.5533 7.24939V8.59454H14.5501Z"
          fill="white" fill-opacity="0.4"/>
    <path d="M7.76151 4.62012C5.94028 4.62012 4.46094 6.09946 4.46094 7.92069C4.46094 9.74192 5.94028 11.2213 7.76151 11.2213C9.58274 11.2213 11.0621 9.74192 11.0621 7.92069C11.0621 6.09946 9.58274 4.62012 7.76151 4.62012ZM7.76151 10.3586C6.41636 10.3586 5.32362 9.26584 5.32362 7.92069C5.32362 6.57554 6.41636 5.4828 7.76151 5.4828C9.10666 5.4828 10.1994 6.57554 10.1994 7.92069C10.1994 9.26584 9.10666 10.3586 7.76151 10.3586Z"
          fill="white" fill-opacity="0.4"/>
</svg>
