<svg width="18" height="14" viewBox="0 0 18 14" fill="none" xmlns="http://www.w3.org/2000/svg">
    <path d="M16.6883 12.8879H15.9295V1.87133C15.9295 1.35856 15.5124 0.941406 14.9996 0.941406H13.3037C12.791 0.941406 12.3738 1.3586 12.3738 1.87133V12.8879H10.4473V6.86269C10.4473 6.34992 10.0301 5.93277 9.51735 5.93277H7.82147C7.30871 5.93277 6.89155 6.34996 6.89155 6.86269V12.8879H4.96501V9.76748C4.96501 9.25471 4.54782 8.83756 4.03508 8.83756H2.33917C1.8264 8.83756 1.40925 9.25475 1.40925 9.76748V12.8879H0.6096C0.418544 12.8879 0.263672 13.0428 0.263672 13.2338C0.263672 13.4249 0.418544 13.5798 0.6096 13.5798H16.6883C16.8793 13.5798 17.0342 13.4249 17.0342 13.2338C17.0342 13.0428 16.8793 12.8879 16.6883 12.8879ZM4.27308 12.8879H2.10107V9.76748C2.10107 9.6362 2.20786 9.52942 2.33914 9.52942H4.03501C4.16629 9.52942 4.27308 9.6362 4.27308 9.76748V12.8879ZM9.75538 12.8879H7.58337V6.86269C7.58337 6.73141 7.69016 6.62462 7.82144 6.62462H9.51732C9.64856 6.62462 9.75538 6.73141 9.75538 6.86269V12.8879ZM15.2377 12.8879H13.0657V1.87133C13.0657 1.74005 13.1725 1.63326 13.3037 1.63326H14.9996C15.1309 1.63326 15.2377 1.74005 15.2377 1.87133V12.8879Z"
          fill="white" fill-opacity="0.4"/>
    <path d="M16.6883 12.8379H15.9795V1.87133C15.9795 1.33095 15.54 0.891406 14.9996 0.891406H13.3037C12.7634 0.891406 12.3238 1.33098 12.3238 1.87133V12.8379H10.4973V6.86269C10.4973 6.32231 10.0577 5.88277 9.51735 5.88277H7.82147C7.28109 5.88277 6.84155 6.32234 6.84155 6.86269V12.8379H5.01501V9.76748C5.01501 9.2271 4.57543 8.78756 4.03508 8.78756H2.33917C1.79879 8.78756 1.35925 9.22714 1.35925 9.76748V12.8379H0.6096C0.39093 12.8379 0.213672 13.0152 0.213672 13.2338C0.213672 13.4525 0.39093 13.6298 0.6096 13.6298H16.6883C16.9069 13.6298 17.0842 13.4525 17.0842 13.2338C17.0842 13.0152 16.9069 12.8379 16.6883 12.8379ZM4.22308 12.8379H2.15107V9.76748C2.15107 9.66382 2.23547 9.57942 2.33914 9.57942H4.03501C4.13868 9.57942 4.22308 9.66382 4.22308 9.76748V12.8379ZM9.70538 12.8379H7.63337V6.86269C7.63337 6.75903 7.71777 6.67462 7.82144 6.67462H9.51732C9.62095 6.67462 9.70538 6.75903 9.70538 6.86269V12.8379ZM15.1877 12.8379H13.1157V1.87133C13.1157 1.76766 13.2001 1.68326 13.3037 1.68326H14.9996C15.1033 1.68326 15.1877 1.76766 15.1877 1.87133V12.8379Z"
          stroke="white" stroke-opacity="0.4" stroke-width="0.1"/>
</svg>
